<?xml version="1.0" encoding="utf-8"?>
<!-- Generator: Adobe Illustrator 23.1.1, SVG Export Plug-In . SVG Version: 6.00 Build 0)  -->
<svg version="1.1" id="Livello_1" xmlns="http://www.w3.org/2000/svg" xmlns:xlink="http://www.w3.org/1999/xlink" x="0px" y="0px"
	 viewBox="0 0 25.2 28.8" style="enable-background:new 0 0 25.2 28.8;" xml:space="preserve">
<style type="text/css">
	.st0{clip-path:url(#SVGID_2_);fill:#DF0030;}
	.st1{clip-path:url(#SVGID_4_);fill:#DF0030;}
	.st2{clip-path:url(#SVGID_6_);fill:#DF0030;}
	.st3{clip-path:url(#SVGID_8_);fill:#DF0030;}
	.st4{clip-path:url(#SVGID_10_);fill:#DF0030;}
</style>
<g>
	<g>
		<defs>
			<rect id="SVGID_1_" y="0" width="25.2" height="28.8"/>
		</defs>
		<clipPath id="SVGID_2_">
			<use xlink:href="#SVGID_1_"  style="overflow:visible;"/>
		</clipPath>
		<path class="st0" d="M24.8,3.6L12.8,0c-0.1,0-0.2,0-0.3,0l-12,3.6C0.2,3.7,0,3.9,0,4.2v13.2c0,5.3,8.1,10,12.4,11.4
			c0.1,0,0.1,0,0.2,0c0.1,0,0.1,0,0.2,0c4.3-1.4,12.4-6.1,12.4-11.4V4.2C25.2,3.9,25,3.7,24.8,3.6 M12.6,23.7
			c-4.2-1.7-7.8-4.9-7.8-6.3V7.3L12.6,5l7.8,2.3v10.1C20.4,18.8,16.7,22,12.6,23.7"/>
	</g>
	<g>
		<defs>
			<rect id="SVGID_3_" y="0" width="25.2" height="28.8"/>
		</defs>
		<clipPath id="SVGID_4_">
			<use xlink:href="#SVGID_3_"  style="overflow:visible;"/>
		</clipPath>
		<path class="st1" d="M16.2,13.2c-0.3,0-0.5-0.2-0.6-0.4L14.7,10c-0.1-0.2-0.3-0.4-0.6-0.4H11c-0.3,0-0.5,0.2-0.6,0.4l-0.9,2.8
			c-0.1,0.3-0.4,0.5-0.8,0.4c-0.3-0.1-0.5-0.4-0.4-0.8l0.9-2.8c0.2-0.7,0.9-1.2,1.7-1.2H14c0.8,0,1.5,0.5,1.7,1.2l0.9,2.8
			C16.7,12.7,16.5,13.1,16.2,13.2C16.3,13.2,16.3,13.2,16.2,13.2"/>
	</g>
	<g>
		<defs>
			<rect id="SVGID_5_" y="0" width="25.2" height="28.8"/>
		</defs>
		<clipPath id="SVGID_6_">
			<use xlink:href="#SVGID_5_"  style="overflow:visible;"/>
		</clipPath>
		<path class="st2" d="M9,18c-0.3,0-0.6-0.3-0.6-0.6v-1.2c0-0.3,0.3-0.6,0.6-0.6s0.6,0.3,0.6,0.6v1.2C9.6,17.7,9.3,18,9,18"/>
	</g>
	<g>
		<defs>
			<rect id="SVGID_7_" y="0" width="25.2" height="28.8"/>
		</defs>
		<clipPath id="SVGID_8_">
			<use xlink:href="#SVGID_7_"  style="overflow:visible;"/>
		</clipPath>
		<path class="st3" d="M16.2,18c-0.3,0-0.6-0.3-0.6-0.6v-1.2c0-0.3,0.3-0.6,0.6-0.6c0.3,0,0.6,0.3,0.6,0.6v1.2
			C16.8,17.7,16.5,18,16.2,18"/>
	</g>
	<g>
		<defs>
			<rect id="SVGID_9_" y="0" width="25.2" height="28.8"/>
		</defs>
		<clipPath id="SVGID_10_">
			<use xlink:href="#SVGID_9_"  style="overflow:visible;"/>
		</clipPath>
		<path class="st4" d="M17.7,12.7l-1.2-0.6c-0.1,0-0.2-0.1-0.3-0.1H9c-0.1,0-0.2,0-0.3,0.1l-1.2,0.6c-0.2,0.1-0.3,0.3-0.3,0.5V15
			c0,1,0.8,1.8,1.8,1.8h7.2c1,0,1.8-0.8,1.8-1.8v-1.8C18,13,17.9,12.8,17.7,12.7 M10.2,15H9c-0.3,0-0.6-0.3-0.6-0.6s0.3-0.6,0.6-0.6
			h1.2c0.3,0,0.6,0.3,0.6,0.6S10.5,15,10.2,15 M16.2,15H15c-0.3,0-0.6-0.3-0.6-0.6s0.3-0.6,0.6-0.6h1.2c0.3,0,0.6,0.3,0.6,0.6
			C16.8,14.7,16.5,15,16.2,15"/>
	</g>
</g>
</svg>
