<?xml version="1.0" encoding="utf-8"?>
<!-- Generator: Adobe Illustrator 23.1.1, SVG Export Plug-In . SVG Version: 6.00 Build 0)  -->
<svg version="1.1" id="Livello_1" xmlns="http://www.w3.org/2000/svg" xmlns:xlink="http://www.w3.org/1999/xlink" x="0px" y="0px"
	 viewBox="0 0 25.2 28.8" style="enable-background:new 0 0 25.2 28.8;" xml:space="preserve">
<style type="text/css">
	.st0{clip-path:url(#SVGID_2_);fill:#DF0030;}
	.st1{clip-path:url(#SVGID_4_);fill:#DF0030;}
</style>
<g>
	<g>
		<defs>
			<rect id="SVGID_1_" x="0.4" y="2.2" width="24.5" height="24.5"/>
		</defs>
		<clipPath id="SVGID_2_">
			<use xlink:href="#SVGID_1_"  style="overflow:visible;"/>
		</clipPath>
		<path class="st0" d="M19.3,15.5c-3.1,0-5.6,2.5-5.6,5.6s2.5,5.6,5.6,5.6s5.6-2.5,5.6-5.6S22.4,15.5,19.3,15.5 M22.7,19.4l-4.1,4.1
			c-0.2,0.2-0.5,0.2-0.7,0l0,0l-2-2c-0.2-0.2-0.2-0.5,0-0.7c0.2-0.2,0.5-0.2,0.7,0l1.7,1.7l3.7-3.7c0.2-0.2,0.5-0.2,0.7,0
			C22.9,18.9,22.9,19.2,22.7,19.4"/>
	</g>
	<g>
		<defs>
			<rect id="SVGID_3_" x="0.4" y="2.2" width="24.5" height="24.5"/>
		</defs>
		<clipPath id="SVGID_4_">
			<use xlink:href="#SVGID_3_"  style="overflow:visible;"/>
		</clipPath>
		<path class="st1" d="M12.1,21.6l-5.7,1l-0.2-1L3.5,6.2l11.4-1.9l6-1L23,15.5c0.1,0.3,0.3,0.4,0.6,0.4c0.3-0.1,0.4-0.3,0.4-0.6
			L21.8,2.6c0-0.3-0.3-0.5-0.6-0.4l-6.4,1.1L1.9,2.2c-0.1,0-0.3,0-0.4,0.1C1.4,2.4,1.4,2.5,1.4,2.7l-1,18.4c0,0.3,0.2,0.5,0.5,0.5
			l4.5,0.5l0.2,1.1c0,0.3,0.3,0.5,0.6,0.4l6.2-1c0.3,0,0.5-0.3,0.4-0.6l0,0C12.6,21.7,12.4,21.6,12.1,21.6"/>
	</g>
</g>
</svg>
