<?xml version="1.0" encoding="utf-8"?>
<!-- Generator: Adobe Illustrator 23.1.1, SVG Export Plug-In . SVG Version: 6.00 Build 0)  -->
<svg version="1.1" id="Livello_1" xmlns="http://www.w3.org/2000/svg" xmlns:xlink="http://www.w3.org/1999/xlink" x="0px" y="0px"
	 viewBox="0 0 25.2 28.8" style="enable-background:new 0 0 25.2 28.8;" xml:space="preserve">
<style type="text/css">
	.st0{clip-path:url(#SVGID_2_);fill:#DF0030;}
	.st1{clip-path:url(#SVGID_4_);fill:#DF0030;}
	.st2{clip-path:url(#SVGID_6_);fill:#DF0030;}
</style>
<g>
	<g>
		<defs>
			<rect id="SVGID_1_" x="0.3" y="2.2" width="24.5" height="24.5"/>
		</defs>
		<clipPath id="SVGID_2_">
			<use xlink:href="#SVGID_1_"  style="overflow:visible;"/>
		</clipPath>
		<path class="st0" d="M15.8,15.5h1.8c0.1-0.3,0.3-1.1,0.3-2.1c0-0.2,0-0.4,0-0.5c-0.7,0-1.6,0.3-1.6,0.5c0,0.3-0.2,0.5-0.5,0.5l0,0
			c-0.3,0-0.5-0.2-0.5-0.5l0,0c0-1.3,1.8-1.5,2.4-1.6c-0.1-0.2-0.1-0.4-0.2-0.6c-0.1,0-3.7,0.5-4.9,0.5s-4.7-0.5-4.9-0.5l0,0
			c-0.1,0.2-0.2,0.4-0.2,0.6c0.7,0,2.4,0.3,2.4,1.6c0,0.3-0.2,0.5-0.5,0.5l0,0c-0.3,0-0.5-0.2-0.5-0.5l0,0c0-0.3-0.9-0.5-1.6-0.5
			c0,0.2,0,0.4,0,0.5c0,1.1,0.1,1.8,0.3,2.1h1.8h0.1c0,0,0,0,0.1,0c0,0,1.5,0.5,3,0.5s3-0.5,3-0.5C15.7,15.5,15.7,15.5,15.8,15.5
			 M13.7,13.9h-2.1c-0.3,0-0.5-0.2-0.5-0.5l0,0c0-0.3,0.2-0.5,0.5-0.5h2.1c0.3,0,0.5,0.2,0.5,0.5l0,0C14.2,13.7,14,13.9,13.7,13.9
			L13.7,13.9z M12.6,10.7c0.9,0,3.3-0.3,4.3-0.5C16.5,9,15.6,8,15.2,7.8c-0.2-0.1-1.3-0.3-2.5-0.3s-2.3,0.2-2.5,0.3
			C9.7,8,8.7,9.1,8.3,10.3C9.4,10.4,11.7,10.7,12.6,10.7 M7.8,17.1h1.1v-0.5H7.8V17.1z M6.9,10.1c0,0.1,0.1,0.1,0.1,0.2l0.1-0.1
			C7,10.2,7,10.1,6.9,10.1"/>
	</g>
	<g>
		<defs>
			<rect id="SVGID_3_" x="0.3" y="2.2" width="24.5" height="24.5"/>
		</defs>
		<clipPath id="SVGID_4_">
			<use xlink:href="#SVGID_3_"  style="overflow:visible;"/>
		</clipPath>
		<path class="st1" d="M12.6,2.2C5.8,2.2,0.3,7.7,0.3,14.4s5.5,12.3,12.3,12.3s12.3-5.5,12.3-12.3S19.4,2.2,12.6,2.2 M16.1,21.4h0.7
			c0.3,0,0.5,0.2,0.5,0.5l0,0c0,0.3-0.2,0.5-0.5,0.5l0,0h-1.1c-0.2,0-0.4-0.1-0.5-0.3l-0.4-0.8h-4.7l-0.4,0.8
			c-0.1,0.2-0.3,0.3-0.5,0.3H8.3c-0.3,0-0.5-0.2-0.5-0.5l0,0c0-0.3,0.2-0.5,0.5-0.5H9l0.3-0.5L9,20.4H8.3c-0.3,0-0.5-0.2-0.5-0.5
			l0,0c0-0.3,0.2-0.5,0.5-0.5h1.1c0.2,0,0.4,0.1,0.5,0.3l0.4,0.8H15l0.4-0.8c0.1-0.2,0.3-0.3,0.5-0.3H17c0.3,0,0.5,0.2,0.5,0.5l0,0
			c0,0.3-0.2,0.5-0.5,0.5l0,0h-0.7L16,20.9L16.1,21.4L16.1,21.4z M19,13.4c0,0.8-0.1,2.2-0.5,2.8v0.9c0,0.6-0.5,1.1-1.1,1.1h-1.1
			c-0.6,0-1.1-0.5-1.1-1.1v-0.4c-0.6,0.2-1.6,0.4-2.7,0.4c-1,0-2-0.2-2.7-0.4v0.4c0,0.6-0.5,1.1-1.1,1.1H7.8c-0.6,0-1.1-0.5-1.1-1.1
			v-0.9c-0.5-0.7-0.5-2-0.5-2.8c0-0.7,0.1-1.5,0.4-2.2c-0.1,0-0.1,0-0.2-0.1C6.3,11,5.7,10.5,5.7,9.6C5.7,9.4,5.8,9.2,6,9
			c0.2-0.1,0.3-0.2,0.5-0.2c0.3,0,0.7,0.1,1.1,0.4c0.5-1.1,1.4-2.1,2-2.4c0.4-0.2,1.8-0.4,3-0.4s2.6,0.2,3,0.4
			c0.6,0.3,1.5,1.3,2,2.4C18,9,18.5,8.9,18.7,8.9s0.4,0.1,0.5,0.2c0.2,0.1,0.3,0.4,0.3,0.6c0,0.8-0.6,1.4-0.7,1.5s-0.1,0.1-0.2,0.1
			C18.9,11.9,19,12.7,19,13.4"/>
	</g>
	<g>
		<defs>
			<rect id="SVGID_5_" x="0.3" y="2.2" width="24.5" height="24.5"/>
		</defs>
		<clipPath id="SVGID_6_">
			<use xlink:href="#SVGID_5_"  style="overflow:visible;"/>
		</clipPath>
		<path class="st2" d="M18.1,10.2L18.1,10.2c0.1,0,0.2-0.1,0.2-0.1C18.2,10.1,18.2,10.2,18.1,10.2 M16.3,16.6v0.5h1.1v-0.5H16.3z"/>
	</g>
</g>
</svg>
