<?xml version="1.0" encoding="utf-8"?>
<!-- Generator: Adobe Illustrator 23.1.1, SVG Export Plug-In . SVG Version: 6.00 Build 0)  -->
<svg version="1.1" id="Livello_1" xmlns="http://www.w3.org/2000/svg" xmlns:xlink="http://www.w3.org/1999/xlink" x="0px" y="0px"
	 viewBox="0 0 25.2 28.8" style="enable-background:new 0 0 25.2 28.8;" xml:space="preserve">
<style type="text/css">
	.st0{clip-path:url(#SVGID_2_);fill:#DF0030;}
	.st1{clip-path:url(#SVGID_4_);fill:#DF0030;}
</style>
<g>
	<g>
		<defs>
			<rect id="SVGID_1_" x="2.2" y="4.2" width="20.8" height="20.7"/>
		</defs>
		<clipPath id="SVGID_2_">
			<use xlink:href="#SVGID_1_"  style="overflow:visible;"/>
		</clipPath>
		<path class="st0" d="M13.4,15.5c-0.2-0.2-0.4-0.2-0.6,0l0,0l-1.1-1.1c0.2-0.2,0.2-0.4,0-0.6l0,0c-0.2-0.2-0.4-0.2-0.6,0l0,0
			l-5.9,5.9H4.4c-0.2,0-0.3,0.1-0.4,0.2l-1.7,3.5c-0.1,0.2-0.1,0.4,0.1,0.5l0.9,0.9c0.1,0.1,0.2,0.1,0.3,0.1s0.1,0,0.2,0l3.5-1.7
			c0.1-0.1,0.2-0.2,0.2-0.4v-0.7l5.9-5.9C13.5,16,13.5,15.7,13.4,15.5L13.4,15.5"/>
	</g>
	<g>
		<defs>
			<rect id="SVGID_3_" x="2.2" y="4.2" width="20.8" height="20.7"/>
		</defs>
		<clipPath id="SVGID_4_">
			<use xlink:href="#SVGID_3_"  style="overflow:visible;"/>
		</clipPath>
		<path class="st1" d="M22.3,5.4l-0.5-0.5c-0.9-0.9-2.6-0.9-3.6,0l-5.5,5.5c-0.1,0.1-0.1,0.2-0.1,0.3c0,0.7-0.6,1.3-1.3,1.3
			c-0.1,0-0.2,0-0.3,0.1L10.1,13c-0.2,0.2-0.2,0.4,0,0.6l0,0l3.5,3.5c0.2,0.2,0.4,0.2,0.6,0l0,0l0.9-0.9c0.1-0.1,0.1-0.2,0.1-0.3
			c0-0.7,0.6-1.3,1.3-1.3c0.1,0,0.2,0,0.3-0.1L22.3,9C22.8,8.5,23,7.9,23,7.2S22.8,5.9,22.3,5.4 M14.7,11.8c-0.2,0.2-0.4,0.2-0.6,0
			l0,0c-0.2-0.2-0.2-0.4,0-0.6l0,0L19.2,6c0.2-0.2,0.4-0.2,0.6,0s0.2,0.4,0,0.6L14.7,11.8z M21.2,7.9L16,13.1
			c-0.2,0.2-0.4,0.2-0.6,0l0,0c-0.2-0.2-0.2-0.4,0-0.6l0,0l5.2-5.2c0.2-0.2,0.4-0.2,0.6,0C21.3,7.5,21.3,7.7,21.2,7.9"/>
	</g>
</g>
</svg>
