<?xml version="1.0" encoding="utf-8"?>
<!-- Generator: Adobe Illustrator 23.1.1, SVG Export Plug-In . SVG Version: 6.00 Build 0)  -->
<svg version="1.0" id="Livello_1" xmlns="http://www.w3.org/2000/svg" xmlns:xlink="http://www.w3.org/1999/xlink" x="0px" y="0px"
	 viewBox="0 0 32.8 18.2" enable-background="new 0 0 32.8 18.2" xml:space="preserve">
<g>
	<defs>
		<rect id="SVGID_1_" width="32.8" height="18.2"/>
	</defs>
	<clipPath id="SVGID_2_">
		<use xlink:href="#SVGID_1_"  overflow="visible"/>
	</clipPath>
	<path clip-path="url(#SVGID_2_)" fill="#DF0030" d="M1.2,17c0,0.1,0.1,0.2,0,0.4c-0.4-0.1-0.5-0.1-0.5,0.4c0.1-0.1,0.3-0.5,0.4,0
		c0.4-0.1,0.7-0.3,1-0.6C1.8,16.9,1.5,16.7,1.2,17 M2.7,17c-0.2,0-0.2,0.1-0.4,0l0.1,0.2c0-0.2,0.1-0.1,0.1-0.1
		C2.7,17.2,2.8,17.2,2.7,17 M0.2,1.8c0,0.1,0.1,0.1,0.2,0.2C0.2,2,0.2,1.9,0.2,1.8 M3.1,15.1c0.2,0,0.3-0.2,0.5,0.1
		c0.1,0,0.1,0,0.1,0.1c-0.1,0-0.1,0-0.1,0c-0.3-0.1-0.3,0.3-0.6,0.4C3.1,15.4,3,15.3,3.1,15.1c-0.2,0.2-0.3-0.2-0.4,0.1
		C2.8,14.8,2.8,14.9,3.1,15.1 M0.8,1.4C1.1,1.3,1,1.5,1,1.6c-0.1,0.2-0.2,0.1-0.2,0C0.8,1.5,0.8,1.4,0.8,1.4 M1.1,1.8
		C1.1,1.8,1.1,1.8,1.1,1.8c0.1-0.2,0.3-0.2,0.5-0.4C1.4,1.7,1.3,1.8,1.1,1.8C1.1,1.8,1.1,1.8,1.1,1.8L1.1,1.8z M1.1,1
		c0.1,0.1,0.3,0,0.4,0.2C1.4,1,1.1,1.5,1.1,1 M4.5,14.9c0.1,0,0.2,0.1,0.3,0.1c-0.1,0-0.2,0.1-0.2,0.2c0.1,0,0.2-0.1,0.3-0.2
		l-0.2-0.3C4.7,14.8,4.6,14.9,4.5,14.9 M4.8,13.3c0.1,0,0.1,0.2,0.1,0.3c-0.1-0.1-0.2,0-0.2-0.2C4.7,13.3,4.7,13.3,4.8,13.3
		 M2.7,3.1c0.1,0,0.2-0.3,0.3,0C2.9,3.1,2.7,3.1,2.7,3.1 M5.2,12.2c-0.1,0.1-0.2,0.2,0,0.3c-0.2,0.1-0.3,0-0.4-0.1
		C4.9,12.4,5,12.2,5.2,12.2 M3.4,2.8C3.3,3,3.2,3,3,3C3,3,3,2.9,3,2.7C3.1,2.9,3.2,2.8,3.4,2.8 M2.9,2.4c0,0,0.1-0.1,0.1-0.1
		c0.1,0.1,0.4,0,0.3,0.3C3.2,2.4,2.9,2.7,2.9,2.4 M3.5,1.7L3.5,1.7C3.6,1.6,3.6,1.6,3.5,1.7L3.5,1.7C3.6,1.7,3.6,1.7,3.5,1.7
		 M3.9,3.2C4,3.2,3.9,3.1,3.9,3.2L3.9,3.2L3.9,3.2z M6.3,13.6c0.2,0,0.1,0.1,0.1,0.2C6.3,13.8,6.2,13.7,6.3,13.6 M3.8,1.2
		c-0.2,0.1-0.3,0.1-0.5,0C3.6,1.2,3.7,0.9,3.8,1.2 M3.7,1.7C3.8,1.6,4,1.9,3.9,1.6c0.4,0.2,0,0.4,0,0.6C3.9,2,3.4,2.2,3.7,1.7
		 M6.8,13.5c-0.1,0.1-0.1,0.3-0.3,0.3c0-0.2,0.1-0.4,0.2-0.5C6.8,13.3,6.8,13.4,6.8,13.5 M4.4,3.3c0-0.1,0.1-0.2,0.1-0.3
		c0.1,0,0.2,0,0.3,0C4.7,3.2,4.5,3.2,4.4,3.3 M7.5,12.1c-0.1,0-0.2,0-0.3-0.1C7.3,11.9,7.4,11.9,7.5,12.1 M5.9,3.4L5.9,3.4
		C5.8,3.3,5.8,3.3,5.9,3.4C5.8,3.3,5.9,3.3,5.9,3.4 M8.1,13.2L8.1,13.2L8.1,13.2L8.1,13.2L8.1,13.2z M7.7,12.1c-0.1,0.1-0.2,0-0.2,0
		C7.6,11.9,7.7,12,7.7,12.1c0,0.2,0.2,0,0.2,0.1C7.9,12.1,7.7,12.3,7.7,12.1 M7.2,11.1c0-0.1-0.2,0-0.1-0.1c0-0.1,0-0.1,0.1-0.2
		c0.2-0.1,0.3,0.1,0.5-0.1c-0.1,0.3-0.3,0.2-0.3,0.4L7.2,11.1z M7.5,10.3c-0.1-0.1,0.1-0.1,0.1-0.2l0.2,0.2
		C7.7,10.4,7.6,10.5,7.5,10.3 M8.8,12.4c-0.3,0-0.4,0.3-0.7,0.1c-0.1-0.1,0.3-0.1,0.1-0.3c0.1-0.1,0.3,0.1,0.3,0
		C8.5,12.3,8.8,12.2,8.8,12.4 M9.1,12.6c0.1,0,0.1-0.1,0.2-0.1C9.3,12.7,9.2,12.6,9.1,12.6 M8.6,9.6C8.6,9.6,8.6,9.5,8.6,9.6
		C8.6,9.5,8.7,9.5,8.6,9.6C8.7,9.6,8.6,9.6,8.6,9.6C8.6,9.6,8.6,9.6,8.6,9.6 M9.1,10.2c0.2,0,0.1,0.2,0.1,0.2c0.1,0,0.1,0.1,0.1,0.1
		c-0.1,0-0.1,0-0.1-0.1c-0.1,0-0.2,0-0.2,0.1C9,10.3,8.9,10.2,9.1,10.2 M7.7,2.1c0.1-0.1,0.2,0,0.2,0.1C7.8,2.2,7.8,2.2,7.7,2.1
		 M9.6,9.5C9.5,9.4,9.2,9.4,9.1,9.2c0.3-0.2,0.5,0,0.6,0.2c0.1,0,0,0.1,0,0.2C9.7,9.5,9.6,9.6,9.6,9.5 M8.4,4.3
		c0.1,0,0.1,0.2,0.4,0.2c0,0.1-0.1,0.1-0.1,0.2C8.5,4.6,8,4.8,8.4,4.3 M10.2,11.4L10.2,11.4C10.2,11.4,10.2,11.4,10.2,11.4 M9.3,6.2
		C9.3,6.2,9.3,6.2,9.3,6.2C9.3,6.2,9.3,6.2,9.3,6.2 M8.4,3.9c-0.1,0-0.1,0-0.3,0C8.4,3.7,8.3,3.6,8,3.6c0.3-0.1,0.6-0.2,0.8,0.1
		C8.7,3.7,8.6,3.7,8.6,3.9c-0.1-0.1,0-0.2-0.2-0.2C8.3,3.7,8.4,3.8,8.4,3.9 M9,4.7c0,0,0,0.1,0,0.2C9,4.9,9,5,8.9,4.9
		c-0.1,0-0.2-0.2-0.3-0.1l0-0.1c0,0,0,0,0,0.1c0.1,0,0.1,0.1,0.2,0C8.9,4.7,9,4.7,9,4.7 M8.7,3.2c0,0-0.1,0-0.2,0
		C8.5,3,8.7,3.2,8.7,3c0.2,0.1,0.1,0.2,0.1,0.4C8.6,3.3,8.9,3.2,8.7,3.2 M10.6,11.5c-0.1-0.1-0.2-0.1-0.3,0c0,0,0.1,0.1,0.1,0.1
		c0,0.1-0.2,0-0.2,0.1c0.1,0.1,0.2,0.1,0.3,0c0.1,0.1,0.1,0.2-0.1,0.1c-0.1,0-0.4,0.2-0.4-0.1c0-0.2,0.2-0.2,0.3-0.2
		c0-0.1-0.1-0.1-0.1-0.1l0,0l0,0c0,0,0-0.1-0.1-0.1c0.1,0,0.2,0.1,0.1,0.1c0.1,0,0.4,0.1,0.4-0.1c0,0,0.1,0,0.1,0.1l-0.1,0.2
		C10.7,11.6,10.7,11.6,10.6,11.5 M9.3,4.9C9.4,5,9.4,5,9.5,5C9.4,4.9,9.4,4.9,9.3,4.9 M9.5,5.8c0.1-0.1,0.1-0.1,0.2,0
		C9.6,5.7,9.6,5.7,9.5,5.8 M9.9,6.2L9.9,6.2L9.9,6.2z M8.9,3.3C9,3.7,9.2,3.7,9.3,3.6c0.1,0.1,0.2,0.2,0.2,0.2L9.2,4
		c0.2,0.1,0.2,0.2,0,0.3C9.1,4,8.8,3.7,8.9,3.3 M11.3,11.6L11.3,11.6L11.3,11.6L11.3,11.6z M9.6,3.5C9.5,3.6,9.5,3.6,9.3,3.6
		C9.4,3.5,9.5,3.5,9.6,3.5 M9.7,5.2c0-0.1,0.1,0.1,0.3,0l0.1,0.2C9.9,5.4,9.9,5.4,9.7,5.2 M10.4,6.2c-0.1-0.1-0.1-0.2-0.1-0.3
		C10,6,9.9,5.8,9.7,5.7c0,0,0.1,0.1,0.1,0.1C9.7,6,9.6,5.9,9.5,6c0,0.1-0.1,0.1-0.2,0.2c0.2,0,0.2,0,0.2,0.1c0.1,0,0.2-0.1,0.4-0.1
		c0,0,0,0,0,0l0,0C10,6.1,10.2,6,10.4,6.2 M9.8,9c0.1-0.2,0.2-0.2,0.2-0.3c0.3,0,0.6,0,0.9-0.1c0.1,0.3-0.5,0-0.4,0.5
		c-0.1-0.2-0.3,0-0.4-0.1c0,0,0,0.1,0,0.1C10.1,9,10.1,8.8,9.8,9 M10.1,5.5c0.1-0.1,0.2,0,0.3-0.1C10.3,5.5,10.2,5.5,10.1,5.5
		 M10.4,4.9c-0.1,0-0.1,0.1-0.2,0.1l0.3,0.1c-0.2,0.2-0.3-0.1-0.4,0C9.9,5,9.9,5,10.4,4.9 M11.9,11c-0.2,0-0.3,0.3-0.5,0.1
		C11.5,11,11.6,10.9,11.9,11 M12.2,11L12.2,11C12.3,11,12.3,11,12.2,11 M10.7,3.3L10.7,3.3c-0.1,0-0.1,0.1-0.1,0
		C10.6,3.3,10.6,3.3,10.7,3.3L10.7,3.3z M10.8,4C10.9,4.2,11,4.3,11,4.5c-0.1-0.1-0.2-0.1-0.3-0.1l-0.1,0.3
		C10.5,4.3,10.5,4.2,10.8,4 M11.5,7.4c0-0.1,0-0.2,0.1-0.3c0.2,0,0.3,0.2,0.3,0.3C11.8,7.5,11.6,7.4,11.5,7.4 M13.5,11.1L13.5,11.1
		L13.5,11.1z M12.4,6.8c0-0.1-0.2,0-0.2-0.1c0-0.1,0.1-0.1,0.2-0.1c-0.2,0-0.4-0.3-0.6,0c0.1-0.1-0.1-0.3,0.1-0.3
		c0.1,0,0.3-0.1,0.5,0c-0.1,0-0.2,0.1-0.3,0.2c0.2,0.1,0.3,0,0.3-0.1c0.1,0.2,0.4,0.3,0.4,0.5c-0.2,0.2-0.3-0.1-0.4-0.1
		C12.4,6.6,12.5,6.7,12.4,6.8 M12.3,4.8c0.1,0,0.1-0.1,0.2-0.1c0-0.1-0.2,0-0.2-0.1c0.2,0.1,0.5,0,0.7,0.1C12.8,4.6,12.6,5,12.3,4.8
		 M13.6,5.1c0,0,0-0.1,0-0.1c0,0,0.1,0,0.1,0.1c0,0-0.1,0.1-0.1,0.2C13.7,5.2,13.6,5.2,13.6,5.1 M13.1,4.7c-0.1-0.1,0.1-0.2,0.1-0.2
		c0.2,0.2,0.3-0.1,0.5,0c0,0.1,0,0.2-0.1,0.4C13.4,4.9,13.3,4.9,13.1,4.7 M15.1,5.3C15.1,5.3,15.1,5.3,15.1,5.3
		C15.1,5.3,15.1,5.3,15.1,5.3L15.1,5.3z M16.4,4.9C16.5,4.9,16.4,4.9,16.4,4.9c0.1,0,0.1,0,0.1,0C16.6,4.9,16.5,5,16.4,4.9L16.4,4.9
		z M17.8,9.8C17.8,9.8,17.8,9.9,17.8,9.8C17.8,9.9,17.9,9.9,17.8,9.8 M17.7,4.7c0.1,0,0.1,0,0.2-0.1c0,0.2,0,0.3-0.1,0.4
		C17.7,5,17.7,4.8,17.7,4.7 M19.2,10.4C19.2,10.4,19.2,10.5,19.2,10.4C19.2,10.5,19.2,10.5,19.2,10.4C19.3,10.5,19.3,10.5,19.2,10.4
		L19.2,10.4z M18.9,9.6c0-0.1,0.1-0.1,0.2-0.1c0.1,0.1,0.1,0.2,0,0.3C19,9.8,18.8,9.7,18.9,9.6 M18,4.4c0.1,0.1,0.1,0.1-0.2,0.2
		C17.9,4.5,18,4.5,18,4.4 M18.7,5c0.1,0,0.1-0.2,0.2-0.1c-0.1,0.2-0.3,0.2-0.4,0.1c-0.2-0.2,0-0.4-0.1-0.6C18.6,4.5,18.5,4.8,18.7,5
		 M18.7,3.8c-0.1-0.1-0.2,0-0.1,0.1C18.7,4,18.6,3.8,18.7,3.8 M20.4,11.2L20.4,11.2l0.3,0.1c0,0.1,0,0.1-0.1,0.3
		C20.5,11.4,20.5,11.4,20.4,11.2 M19.7,10.4C19.7,10.5,19.8,10.5,19.7,10.4l0.2,0.4c-0.4,0-0.7-0.1-1-0.3c-0.1,0-0.3-0.2-0.1-0.2
		c0.1,0,0.2-0.1,0.2-0.1c0.1,0,0.1-0.1,0.2,0l0-0.4c0.1,0,0.2,0.1,0.3,0c-0.2,0.2,0.1,0.2,0.1,0.3c0.1-0.1,0.1-0.3,0.3-0.3
		c0,0.1-0.1,0.2-0.1,0.3c0.3,0.1,0.7,0.1,1,0c0,0.2-0.3,0.3-0.1,0.5c-0.5,0.2-0.7-0.2-1.1-0.2C19.8,10.4,19.8,10.4,19.7,10.4
		 M22.5,10.1c-0.2-0.1-0.3,0.1-0.5-0.1c0.1-0.1,0.2-0.1,0.4-0.1L22.5,10.1z M21.2,3.1c0.1-0.1,0.2-0.2,0.4-0.2c0.1,0,0.1,0.1,0,0.1
		C21.4,3.1,21.3,3,21.2,3.1 M23.3,10c0,0.1,0.1,0.2,0.2,0.2l-0.2,0.2C23.2,10.3,23.1,10.2,23.3,10 M23.9,10.1L23.9,10.1
		C23.9,10.1,23.9,10.1,23.9,10.1L23.9,10.1z M22,2.6l0.5-0.1c0,0.1-0.2,0-0.3,0.2c0,0.1,0.1,0,0.2,0.1c-0.1,0.1-0.2,0.1-0.3,0.2
		C22.3,2.6,22.1,2.6,22,2.6 M22.7,2.4c-0.1,0-0.1,0-0.1,0C22.5,2.2,22.6,2.4,22.7,2.4 M24.7,10.1L24.7,10.1L24.7,10.1z M26.4,15.6
		c0,0.1-0.2,0.3,0.1,0.4C26.6,15.9,26.7,15.7,26.4,15.6 M25.5,11.5c-0.1-0.1,0.1,0,0.1-0.1c-0.1-0.1-0.2,0-0.4-0.2
		c0-0.1,0.1-0.2,0.1-0.3c0.1,0,0,0.1,0.1,0.1c0,0,0-0.1,0.1-0.2c0.1,0,0.1,0.1,0.1,0.1c0.1,0.1,0.2,0.4,0.1,0.5
		C25.6,11.5,25.5,11.6,25.5,11.5 M26.1,15.1c0.3-0.4,0.5,0.1,0.7,0C26.6,15.2,26.4,15,26.1,15.1 M24.1,1.8c0,0.1,0,0.2,0.1,0.3
		C24,2,24.1,1.9,24.1,1.8 M26.8,12.1C26.8,12.1,26.8,12.1,26.8,12.1C26.9,12,27,12,27,12c-0.1,0.3,0.2,0.1,0.3,0.3
		C27.1,12.5,27,12.4,26.8,12.1 M29,13c0.1,0,0.2,0.1,0.1,0.2l0,0.1C29,13.2,28.8,13.2,29,13 M29.2,14.2c0.2-0.1,0.4-0.1,0.2-0.5
		c0.2,0.2,0.3,0.3,0.5,0.3L29.2,14.2z M31.3,18.1c0-0.1-0.2-0.1-0.2-0.2c0.1,0,0.3,0,0.3-0.1c0.2-0.4,0.4-0.7,0.7-1.1
		c0.2-0.3,0.3-0.6,0.5-0.9c0.1-0.2,0.3-0.5-0.2-0.6c-0.2,0-0.5-0.2-0.7-0.3c-0.4-0.3-0.8-0.5-1-0.9c-0.2-0.2-0.4,0-0.5-0.2
		c-0.2-0.2-0.3-0.4-0.6-0.5c-0.2-0.2-0.4-0.3-0.6-0.4c-0.3-0.2-0.6-0.6-1.1-0.7c-0.1,0-0.5,0.2-0.3-0.3c0,0,0,0,0,0
		c-0.3-0.1-0.4-0.5-0.8-0.3c0,0.1,0.1,0.1,0.2,0.2c-0.1,0.1-0.2,0-0.3-0.1c0-0.1,0.2-0.2,0.2-0.4c-0.5,0.3-0.8,0-1.2-0.2
		c0.1,0,0.1-0.3,0.3-0.1c0,0.1,0-0.1,0.1-0.1c0,0,0.1-0.1,0-0.1c-0.2,0-0.2-0.1-0.3-0.2c-0.2-0.2-0.6-0.2-0.8-0.5
		c-0.1,0.1,0.1,0.3-0.2,0.3c0.1-0.2-0.1-0.3-0.2-0.4c0,0.2-0.2,0.2-0.2,0.3c-0.1,0-0.2-0.3-0.2-0.2c-0.2,0.3-0.2,0-0.3-0.1l0,0
		c0,0,0,0,0,0l0,0c0,0-0.1,0.1-0.1,0.1c-0.1-0.1-0.3-0.2-0.1-0.4c0.1,0,0.2,0.1,0.3,0.2c0,0,0,0.1,0,0.1l-0.1,0c0,0,0.1,0,0.1,0
		c0.1,0,0.1,0,0.2,0c0,0,0.1,0,0.1-0.1l0,0c0,0-0.1-0.1-0.1-0.1c-0.2-0.3-0.5-0.3-0.6-0.5c-0.1,0.1-0.1,0.2-0.2,0.3
		c0-0.2-0.4-0.1-0.3-0.4c0.1-0.2-0.1-0.1-0.1-0.2c-0.2,0-0.3-0.2-0.5-0.2C22.1,8.8,22,8.7,22,8.9c-0.1,0-0.2-0.1-0.3-0.2
		c0-0.1,0.1-0.2,0.3-0.2c-0.1-0.1-0.3-0.2-0.4-0.2c0,0.1-0.1,0.1-0.2,0.1c0,0,0-0.1,0-0.1l0.2,0c-0.1-0.3-0.4-0.2-0.6-0.3
		c-0.1-0.1,0,0.2-0.1,0.3c-0.2-0.1-0.3-0.2-0.5,0.1c-0.1-0.1-0.2-0.2-0.3-0.2c0-0.3,0.3-0.3,0.4-0.4c0.2-0.2,0.6-0.2,0.8-0.4
		c0.3-0.2,0.6-0.2,0.9-0.3c0.3-0.1,0.5-0.2,0.8-0.3c0.4-0.2,0.9-0.3,1.3-0.5c0.5-0.2,1-0.2,1.5-0.5c0.2-0.1,0.6,0.1,0.6-0.4
		c0,0,0.1,0,0.1-0.1c0.5-0.1,1-0.3,1.5-0.4c0.4-0.1,0.7-0.4,1.2-0.2C29,4.8,29,4.7,29,4.7c0.1-0.4-0.1-0.7,0.1-1.1
		c0.2-0.4,0-0.8,0.1-1.2c0.1-0.2,0.2-0.6,0.1-0.9c-0.1-0.1,0-0.4,0-0.4c0.3-0.3,0.1-0.6,0.1-0.9c0-0.3-0.2-0.2-0.3-0.2
		c-0.4,0.4-1,0.3-1.5,0.6C27,0.8,26.4,1,25.9,1.1c-0.6,0.2-1.1,0.4-1.6,0.5c-0.1,0-0.4,0-0.3,0.3c0,0,0.2,0.1,0,0.2
		c-0.1,0.1-0.1,0.1-0.2,0c-0.3-0.4-0.5,0.1-0.8,0.1l0,0.1c0.1,0,0.1-0.2,0.2,0c-0.2,0.2-0.2,0-0.3-0.1c-0.5,0.2-0.9,0.4-1.4,0.5
		C21,2.7,20.8,3,21,3.4c-0.2-0.3-0.3,0.2-0.5,0c0.1-0.1,0.1-0.3,0.4-0.2c0-0.3-0.1-0.3-0.3-0.2c-0.2,0.1-0.4,0.2-0.6,0.3
		c-0.4,0.1-0.8,0.2-1.2,0.5c0.2,0.1,0.3,0.1,0.4,0.1c0.2,0,0.4-0.1,0.5,0.1c-0.1,0-0.1,0.2-0.2,0.1c-0.1-0.1-0.4-0.1-0.6,0
		c-0.2,0.1-0.3,0-0.3-0.1c-0.1,0.1-0.3,0-0.4,0.1c0,0,0,0,0,0.1l0,0c-0.1,0-0.2-0.2-0.3-0.1c-0.1,0.2-0.4,0-0.4,0.3
		c-0.2-0.2-0.1,0.3-0.3,0.1c0.1,0.2,0.1,0.3,0,0.5C17.2,5,17,5,17,5c0-0.2,0-0.3,0.1-0.5c-0.6,0.5-1.2,0.7-1.9,0.8
		C15.1,5,15,5.3,15,5.2c0.1-0.1,0-0.2-0.1-0.3c-0.1,0.2-0.2,0.2-0.3,0c-0.1,0.2,0.2,0.5-0.2,0.6c0-0.1,0-0.2,0-0.2
		c-0.1-0.1-0.1-0.2-0.2-0.3c0,0,0,0.1,0,0.2l0,0.1c0,0,0,0,0-0.1c-0.3,0-0.1-0.2-0.2-0.4c0.1,0.1,0.3,0.1,0.3,0.1
		c0-0.6-0.7-0.4-1-0.7c0,0,0,0.1-0.1,0.1c-0.1-0.2-0.5-0.3-0.7-0.1c-0.3,0.2-0.8,0.2-1.1-0.1c0.2,0.1,0.3,0.1,0.4,0
		c0-0.1-0.1,0-0.1-0.1c0,0,0.1-0.1,0-0.1c-0.1,0-0.2,0-0.3,0c0,0,0-0.1,0-0.1c0.1-0.2,0.2-0.1,0.2-0.1c0.1,0.1,0.1-0.1,0.3-0.1
		c-0.3-0.2-0.5,0-0.7,0l0.1,0.2l0,0l0,0c-0.2,0-0.3-0.2-0.4,0l-0.1-0.4c-0.2,0.1-0.1,0.1-0.1,0.2c0,0.1,0,0.2,0,0.2
		c0,0-0.1,0.1-0.1,0C10.2,3.8,10,3.9,9.8,4.1c0,0,0,0-0.1,0c0-0.1,0.1-0.2,0-0.2C9.7,3.9,9.7,4,9.6,4c0.1-0.2,0.1-0.4,0.1-0.6
		c0.2,0.1,0.2,0.1,0.3,0l-0.1,0c0,0,0,0,0.1,0c0,0,0-0.1,0-0.1c0,0,0,0,0,0c0.2,0.1,0.2,0.1,0.2-0.1c0,0-0.1,0.1-0.1,0.1
		c0,0,0,0,0,0c0,0,0.1,0,0.1-0.1c0.1,0.2,0.5,0.1,0.6,0.3l0.2-0.1c-0.1-0.3-0.3-0.3-0.6-0.2c-0.1-0.4-0.4,0-0.6-0.2
		c0.1-0.2,0.1-0.2,0-0.2C9.5,2.9,9.3,2.6,9,2.5c-0.3-0.1-0.4,0-0.4,0.2c-0.4-0.1-0.7,0-1.1-0.1C7.7,2.6,7.7,2.1,8,2.6
		C7.9,2.3,8.2,2.4,8.2,2.1C8,2.1,7.8,1.9,7.5,1.9c-0.1,0-0.2,0.1-0.3,0C7.1,1.8,6.9,1.8,6.7,1.7c-0.2,0-0.4,0.1-0.5,0
		c-0.2-0.5-0.8-0.4-1-0.5C4.7,1,4.1,0.8,3.5,0.6c-0.2,0-0.1,0.1-0.2,0.2C3.3,0.7,3.2,0.6,3.1,0.6c0,0.1-0.1,0.3-0.3,0.2
		C2.5,0.5,2,0.5,1.6,0.5C1.1,0.4,0.7,0.5,0.3,0.8C-0.1,1,0.1,1.3,0.1,1.7c0,0-0.1,0-0.1,0c0.1,0.3,0.2,0.5,0.4,0.4
		C0.6,2,0.9,1.8,1.3,2.1c0-0.1,0.2,0,0.3-0.1C1.6,1.9,1.9,1.9,2,2c0,0,0,0.1,0,0.2c0.1,0,0.1-0.1,0.2-0.1c0.1,0.1,0.1,0.2,0.1,0.2
		c0,0.2-0.1,0.4,0.2,0.4c0.1,0,0.1,0.1,0.1,0.2L2.6,3c-0.1,0,0.1-0.1,0-0.2c-0.1,0-0.3,0-0.3,0c0.2,0.5,0.8,0.2,1,0.6
		c0.1-0.2-0.2-0.3-0.1-0.4c0.2-0.1,0.3,0.2,0.4,0c0-0.2,0-0.3,0-0.5c0.3,0,0.2,0.2,0.2,0.3c0,0.2,0.2,0.3,0.2,0.4
		C3.9,3.3,4,3.2,4,3.2c0.2,0.3,0.7,0.2,0.9,0.4c0-0.1-0.1-0.2-0.1-0.2c0.3-0.1,0.5,0.1,0.7-0.2c0.1,0.1,0.1,0.3,0.3,0.2
		C5.8,3,6,3,6.3,3.1L6.3,2.8C6.4,2.9,6.4,3,6.4,3.1c0.2,0.2-0.2,0.1-0.2,0.3C6.4,3.7,6.4,3.7,6.3,4c0.1,0,0.2,0,0.2,0.2
		c-0.1,0.1-0.2,0-0.2,0C6,4,6,4,5.9,4.2c-0.1,0.2,0,0.4-0.2,0.5c0.1,0,0.2,0.1,0.2,0.1c0.2,0,0.4-0.3,0.4-0.5c0-0.1,0.1,0,0.1-0.1
		C6.6,4.1,6.8,4.1,7,4.1L6.7,4c0.2-0.1,0.3-0.2,0.4-0.2c0.2,0.1,0.5,0.1,0.6-0.1c0.1,0,0.2,0.1,0.2,0.1C7.8,3.9,8,3.9,8,4.1
		C7.5,3.8,7.6,4.5,7.1,4.4c0.3,0.2,0.4,0.4,0.7,0.2c0.1,0,0.2,0,0.3,0.2c0.1,0.3,0.3,0.3,0.5,0.1c0,0.5-0.2,0.7-0.5,0.7
		C8.3,5.8,8.7,5.8,8.9,6c0-0.1,0-0.2,0-0.2C9.1,5.8,9.1,5.9,9.2,6c0.1-0.2,0.2-0.3,0.2-0.4C9.2,5.5,9.1,5.5,9,5.4l0.3-0.2
		c0-0.2-0.1-0.4-0.1-0.6c0.3,0,0.4,0.2,0.5,0.5C9.4,4.9,9.5,5.2,9.4,5.2c0.1,0.1,0.2,0,0.3,0c0,0.1-0.2,0.1,0,0.3L10,5.5
		c0.1,0.4,0.7,0.3,0.7,0.7C10.8,6.1,10.7,6,10.8,6c0.1,0,0.1,0,0.2,0C11,6,11.1,6.1,11,6.3c-0.2,0.3,0,0.6,0.2,0.8
		c0.2,0.1,0.3,0.3,0.2,0.6c-0.1,0.2-0.2,0.1-0.4,0.1c0,0.2-0.1,0.4-0.4,0.4c0.2-0.1,0.3-0.2,0.3-0.4c-0.3,0.4-1,0.2-1,0.8
		c-0.1,0,0-0.2-0.1-0.1c0,0.1,0,0.2-0.1,0.3c-0.1,0-0.1,0.2-0.2,0.1C9.3,8.7,8.8,9,8.8,9.3c0,0.1,0.2,0,0.2,0.1C9.1,9.4,9,9.5,9,9.5
		L9,9.6l0-0.1c-0.1-0.1-0.1,0.1-0.2,0c0-0.1-0.1-0.1-0.1-0.2C8.5,9.4,8.3,9.4,8.4,9.6c-0.1,0-0.1,0-0.2-0.1c0,0.2,0.1,0.3,0,0.4
		C8,9.9,8.1,9.6,7.9,9.8c-0.3,0.3-0.7,0.6-1.2,0.8c-0.5,0.3-0.5,0.9-1.1,1c-0.1,0-0.4,0.2-0.4,0.5c0,0-0.2,0.1-0.2,0.1
		c-0.1,0-0.2,0.1-0.2,0.2c-0.2,0.2-0.4,0.4-0.6,0.6C4.1,13,4.3,13,4.3,13.2c-0.6,0-0.9,0.4-1.2,0.8c0.2,0.1,0.2-0.1,0.3-0.2
		c0.1,0.2,0.2,0.6,0.2,0.6c-0.4-0.1-0.6,0.5-1,0.1C2.4,14.9,2,15,2.3,15.4c0,0,0,0.3-0.2,0.3c-0.2,0-0.2,0.2-0.2,0.3
		c0.1,0.3-0.1,0.2-0.2,0.2c-0.2,0-0.2,0-0.3,0.3c0.1,0.1,0.3,0,0.4,0.2c0-0.1,0-0.2,0.1-0.3c0,0.2,0.2,0.3,0.3,0.6
		c0.1-0.2,0.3-0.1,0.3-0.3c-0.2,0-0.2-0.1-0.3-0.3c0.2,0.1,0.2,0,0.3-0.2c-0.2,0.2-0.3,0.1-0.3-0.1c0.2-0.1,0.6,0,0.5-0.4
		c-0.1-0.1-0.2,0.1-0.2,0c0.1-0.2,0.2-0.3,0.3-0.2C2.7,15.7,3,16,3.2,16.1c0-0.1,0.1-0.2,0.2-0.2c0,0.1,0.1,0,0.2,0c0,0-0.1,0-0.1,0
		c0.1-0.4,0.4-0.2,0.6-0.2c0.2,0,0.2-0.1,0.4-0.1c-0.1-0.1,0.2-0.1,0.1-0.3c-0.1-0.2-0.2-0.4,0-0.6c0.1-0.1,0.3-0.2,0.3-0.4
		c0.3,0.4,0.5-0.2,0.8-0.1c0,0.1-0.2,0-0.1,0.2c0.4,0,0.7,0,0.5-0.6c0.2,0.1,0.3,0.1,0.5,0.1c0,0.1,0,0.1-0.1,0.2
		c0.3-0.1,0.7-0.1,0.9-0.3c-0.2-0.1-0.4-0.1-0.4-0.3c0.1-0.1,0-0.2,0.1-0.4c-0.2,0-0.3,0-0.4-0.1c0-0.1,0-0.2,0.1-0.2
		c0.2,0.1,0.5-0.1,0.8,0.1c-0.4,0-0.4,0.3-0.4,0.6c0.3-0.1,0.5-0.3,0.7-0.3c-0.1-0.4,0.2-0.4,0.4-0.4c-0.2,0.1-0.2,0.3-0.3,0.5
		c-0.1,0.1,0,0.2,0.1,0.2c0.1,0,0.1,0,0.1-0.2c0-0.2,0.1-0.1,0.2-0.1s0.1,0.1,0.2,0c0-0.1,0-0.1,0-0.2c-0.1-0.2-0.1,0.1-0.2,0
		c0-0.2,0.2-0.3,0.3-0.2c0.1,0,0.2,0,0.3,0c0.1-0.1-0.1-0.1-0.1-0.1c0.2-0.3,0.4,0,0.5,0c0.3-0.1,0.6-0.3,0.9-0.4
		c0.3-0.2,0.7-0.5,1.1-0.8l0-0.1c0.1-0.1,0.2,0,0.4,0c0.1,0.2-0.2,0.1-0.2,0.2l0,0.1c0,0,0,0,0-0.1l0-0.1c-0.2,0.3-0.4,0.4-0.5,0.7
		c0.5-0.5,1-0.6,1.4-1.1c-0.1,0.2-0.3,0.1-0.5,0.2c0.1-0.2,0.4-0.1,0.5-0.3l0,0c0-0.1,0-0.2,0.2-0.2c0.1,0,0.2,0,0.2,0.1
		c0,0.1,0,0.1-0.2,0.1c-0.1,0-0.1,0.1-0.2,0c0.1,0.1-0.2,0.4,0.2,0.2c-0.2,0.1-0.3,0.2-0.4,0.2c0.2,0.2,0.3,0,0.3,0l0.2-0.2
		c0.3,0.2,0.6-0.1,0.9-0.2l0,0l0,0l0,0l0.1,0c0.3,0,0.6-0.3,0.9-0.5c0.6-0.4,1.4-0.6,2-1c0-0.1,0.1,0,0.2,0c0,0.2,0.2,0.2,0.3,0.3
		c0.1,0.1,0.1,0.1,0,0.2c0.2,0.1,0.4,0,0.6,0.1c0-0.1,0.1-0.2,0.1-0.3l0,0c0,0-0.1-0.1-0.1-0.1c0.1,0,0.1,0,0.1,0
		c0.2,0,0.3,0.2,0.5,0.3c0-0.3,0.1-0.5,0.4-0.5c0,0.2-0.1,0.4-0.3,0.5c0.1,0,0.2,0,0.1,0.1c0.2,0,0.2-0.2,0.3-0.1
		c-0.1,0.1-0.2,0.2-0.4,0.1c-0.1,0-0.2-0.2-0.3,0.1c0,0.2,0,0.4,0.2,0.5c0.8,0.4,1.5,0.8,2.2,1.2c0,0,0.1-0.1,0.2-0.1
		c0,0.1,0.1,0,0.1,0l-0.1-0.1c0-0.2,0.4-0.3,0.7-0.1c0.2,0,0.2,0.2,0.5,0.2c-0.4,0.2-0.4-0.1-0.5-0.2c-0.2,0-0.3,0.4-0.5,0.1
		c0,0.4,0.3,0.3,0.5,0.4c0.1,0,0.2,0.2,0.3,0.1c0.2-0.2,0.3,0.2,0.5,0c0,0.2,0,0.3-0.1,0.3c0.2-0.1,1.1,0.5,1.1,0.6
		c0.1,0,0-0.2,0.1-0.2c0.4,0.2,0.5,0.6,0.8,0.7c0.2,0,0.3,0.1,0.3,0.2c0.4,0.3,0.9,0.6,1.3,0.8c0.3,0.1,0.6,0.4,0.8,0.6
		c0-0.1-0.1-0.2,0.1-0.3c0.1,0,0.1,0,0.2,0.2c0.2,0.4,0.7,0.6,1,1c0.3,0.3,0.8,0.4,1.1,0.7c0.2,0.2,0.6,0.3,0.8,0.6
		c0,0,0.2,0.1,0.2,0.1c0.3-0.2,0.5,0.1,0.7,0.2C31,18.2,31.1,18.2,31.3,18.1"/>
</g>
</svg>
