<svg xmlns="http://www.w3.org/2000/svg" width="371" height="127" viewBox="0 0 371 127">
    <g fill="none" fill-rule="evenodd">
        <path fill="#FFF" d="M0 126.631h233.428V0H0z"/>
        <path fill="#E0052D" d="M236.213 126.631h134.626V0H236.213z"/>
        <path fill="#FFF" d="M277.428 83.552c-1.46.833-3.134.206-3.729-1.41l-1.202-3.289c-.585-1.602.136-3.598 1.604-4.426l18.088-10.42c1.455-.838 3.13-.214 3.71 1.381l9.06 24.815c.594 1.627-.114 3.61-1.569 4.455l-15.98 9.198c-1.46.836-3.87 2.157-5.36 2.91 0 0-4.382 2.251-6.73 2.748-2.37.525-4.738.501-7.184-.059-3.196-.734-5.984-2.434-8.445-5.124-2.429-2.684-4.506-6.396-6.247-11.097-3.312-9.132-3.99-16.9-1.936-23.335 2.031-6.438 6.805-11.836 14.37-16.18l18.638-10.712c1.46-.833 3.126-.222 3.7 1.39l1.134 3.04c.58 1.595-.136 3.592-1.604 4.432l-15.982 9.196c-1.457.837-3.718 2.431-5.035 3.556 0 0-3.822 3.22-4.6 7.016-.777 3.794-.055 8.72 2.15 14.78 2.057 5.656 4.458 9.226 7.158 10.753 2.678 1.501 5.991 1.143 9.908-1.112l8.51-4.903c1.46-.844 2.176-2.822 1.583-4.427l-2.326-6.392c-.597-1.596-2.25-2.226-3.729-1.382l-7.955 4.598zM322.078 30.663c-4.253 2.451-6.877 5.731-7.914 9.831-1.034 4.104-.47 9.104 1.664 14.966 2.323 6.385 5.064 10.467 8.163 12.254 3.12 1.791 6.86 1.429 11.234-1.06 4.29-2.481 6.958-5.787 7.95-9.917 1-4.137.399-9.275-1.81-15.386-2.261-6.129-4.956-10.07-8.096-11.792-3.175-1.733-6.89-1.358-11.191 1.104m-17.09 30.971c-3.258-8.902-3.74-16.588-1.453-23.16 2.3-6.569 7.39-12.126 15.324-16.684 7.969-4.58 14.65-5.776 20.095-3.6 5.426 2.172 9.82 7.836 13.137 16.983 3.358 9.132 3.916 17.008 1.684 23.622-2.213 6.591-7.315 12.178-15.291 16.78-8.058 4.643-14.788 5.834-20.208 3.588-5.41-2.251-9.844-8.087-13.288-17.529"/>
        <path fill="#003A78" d="M27.89 49.904h7.543l-5.824 27.78h16.468l-1.336 6.3H20.73zM65.196 49.904h26.015l-1.289 6.3h-18.52l-1.528 7.303H87.01l-1.24 5.824H68.632l-1.766 8.354h18.806l-1.336 6.3h-26.3zM112.188 70.811h9.116l-1.67-13.558h-.096l-7.35 13.558zm4.964-20.908h7.685l5.68 34.081h-7.446l-1.098-7.587H109.23l-4.297 7.587H97.01l20.143-34.08zM149.962 72.672c-.24 4.822 3.055 6.3 7.35 6.3 3.007 0 6.492-1.43 6.492-4.82 0-3.34-4.392-4.01-8.64-5.298-4.296-1.336-8.591-3.294-8.591-9.165 0-7.59 6.92-10.596 13.507-10.596 6.97 0 12.793 3.103 12.793 10.977h-7.113c.143-3.817-2.625-5.155-6.11-5.155-2.864 0-5.966 1.099-5.966 4.249 0 3.389 5.776 4.248 8.115 4.82 5.346 1.385 9.117 3.438 9.117 9.548 0 8.16-7.399 11.264-13.89 11.264-9.404 0-14.178-3.914-14.178-12.124h7.113zM190.756 49.904h26.016l-1.29 6.3h-18.52l-1.527 7.303h17.135l-1.24 5.824h-17.137l-1.765 8.354h18.807l-1.338 6.3h-26.3z"/>
    </g>
</svg>
